<?xml version="1.0" encoding="UTF-8" standalone="no"?>
<!-- Created with Inkscape (http://www.inkscape.org/) -->

<svg
   xmlns:dc="http://purl.org/dc/elements/1.1/"
   xmlns:cc="http://creativecommons.org/ns#"
   xmlns:rdf="http://www.w3.org/1999/02/22-rdf-syntax-ns#"
   xmlns:svg="http://www.w3.org/2000/svg"
   xmlns="http://www.w3.org/2000/svg"
   xmlns:xlink="http://www.w3.org/1999/xlink"
   xmlns:sodipodi="http://sodipodi.sourceforge.net/DTD/sodipodi-0.dtd"
   xmlns:inkscape="http://www.inkscape.org/namespaces/inkscape"
   width="1920"
   height="1080"
   viewBox="0 0 508 285.75001"
   version="1.1"
   id="svg118"
   inkscape:version="0.92.3 (2405546, 2018-03-11)"
   sodipodi:docname="background.svg">
  <defs
     id="defs112">
    <clipPath
       id="clipPath5036"
       clipPathUnits="userSpaceOnUse">
      <path
         inkscape:connector-curvature="0"
         id="path5034"
         d="M 0,0 H 297.638 V 419.528 H 0 Z" />
    </clipPath>
    <clipPath
       id="clipPath5056"
       clipPathUnits="userSpaceOnUse">
      <path
         inkscape:connector-curvature="0"
         id="path5054"
         d="M 0,0 H 297.638 V 419.528 H 0 Z" />
    </clipPath>
  </defs>
  <sodipodi:namedview
     id="base"
     pagecolor="#ffffff"
     bordercolor="#666666"
     borderopacity="1.0"
     inkscape:pageopacity="0.0"
     inkscape:pageshadow="2"
     inkscape:zoom="0.35"
     inkscape:cx="610.55328"
     inkscape:cy="516.34941"
     inkscape:document-units="px"
     inkscape:current-layer="layer1"
     showgrid="false"
     units="px"
     showguides="false"
     inkscape:window-width="2493"
     inkscape:window-height="1385"
     inkscape:window-x="1987"
     inkscape:window-y="27"
     inkscape:window-maximized="1" />
  <metadata
     id="metadata115">
    <rdf:RDF>
      <cc:Work
         rdf:about="">
        <dc:format>image/svg+xml</dc:format>
        <dc:type
           rdf:resource="http://purl.org/dc/dcmitype/StillImage" />
        <dc:title></dc:title>
      </cc:Work>
    </rdf:RDF>
  </metadata>
  <g
     inkscape:label="Layer 1"
     inkscape:groupmode="layer"
     id="layer1"
     transform="translate(0,-11.249951)">
    <path
       d="M 0,297.00006 H 508.00001 V 11.250053 H 0 Z"
       style="fill:#2ea836;fill-opacity:1;fill-rule:nonzero;stroke:none;stroke-width:1.07820249"
       id="path5028"
       inkscape:connector-curvature="0" />
    <g
       id="g1125"
       transform="rotate(-15,246.63181,167.71538)">
      <use
         height="100%"
         width="100%"
         transform="translate(-192.54555,-613.491)"
         id="use363"
         xlink:href="#text197"
         inkscape:tiled-clone-of="#text197"
         y="0"
         x="0" />
      <use
         height="100%"
         width="100%"
         id="use365"
         transform="translate(-150.85149,-601.9975)"
         xlink:href="#text197"
         inkscape:tiled-clone-of="#text197"
         y="0"
         x="0" />
      <use
         height="100%"
         width="100%"
         id="use367"
         transform="translate(-192.54555,-590.504)"
         xlink:href="#text197"
         inkscape:tiled-clone-of="#text197"
         y="0"
         x="0" />
      <use
         height="100%"
         width="100%"
         id="use369"
         transform="translate(-150.85149,-579.0105)"
         xlink:href="#text197"
         inkscape:tiled-clone-of="#text197"
         y="0"
         x="0" />
      <use
         height="100%"
         width="100%"
         id="use371"
         transform="translate(-192.54555,-567.517)"
         xlink:href="#text197"
         inkscape:tiled-clone-of="#text197"
         y="0"
         x="0" />
      <use
         height="100%"
         width="100%"
         id="use373"
         transform="translate(-150.85149,-556.0235)"
         xlink:href="#text197"
         inkscape:tiled-clone-of="#text197"
         y="0"
         x="0" />
      <use
         height="100%"
         width="100%"
         id="use375"
         transform="translate(-192.54555,-544.52999)"
         xlink:href="#text197"
         inkscape:tiled-clone-of="#text197"
         y="0"
         x="0" />
      <use
         height="100%"
         width="100%"
         id="use377"
         transform="translate(-150.85149,-533.03649)"
         xlink:href="#text197"
         inkscape:tiled-clone-of="#text197"
         y="0"
         x="0" />
      <use
         height="100%"
         width="100%"
         id="use379"
         transform="translate(-192.54555,-521.54298)"
         xlink:href="#text197"
         inkscape:tiled-clone-of="#text197"
         y="0"
         x="0" />
      <use
         height="100%"
         width="100%"
         id="use381"
         transform="translate(-150.85149,-510.04949)"
         xlink:href="#text197"
         inkscape:tiled-clone-of="#text197"
         y="0"
         x="0" />
      <use
         height="100%"
         width="100%"
         id="use383"
         transform="translate(-192.54555,-498.55599)"
         xlink:href="#text197"
         inkscape:tiled-clone-of="#text197"
         y="0"
         x="0" />
      <use
         height="100%"
         width="100%"
         id="use385"
         transform="translate(-150.85149,-487.06248)"
         xlink:href="#text197"
         inkscape:tiled-clone-of="#text197"
         y="0"
         x="0" />
      <use
         height="100%"
         width="100%"
         id="use387"
         transform="translate(-192.54555,-475.56898)"
         xlink:href="#text197"
         inkscape:tiled-clone-of="#text197"
         y="0"
         x="0" />
      <use
         height="100%"
         width="100%"
         id="use389"
         transform="translate(-150.85149,-464.07548)"
         xlink:href="#text197"
         inkscape:tiled-clone-of="#text197"
         y="0"
         x="0" />
      <use
         height="100%"
         width="100%"
         id="use391"
         transform="translate(-192.54555,-452.58198)"
         xlink:href="#text197"
         inkscape:tiled-clone-of="#text197"
         y="0"
         x="0" />
      <use
         height="100%"
         width="100%"
         id="use393"
         transform="translate(-150.85149,-441.08847)"
         xlink:href="#text197"
         inkscape:tiled-clone-of="#text197"
         y="0"
         x="0" />
      <use
         height="100%"
         width="100%"
         id="use395"
         transform="translate(-192.54555,-429.59497)"
         xlink:href="#text197"
         inkscape:tiled-clone-of="#text197"
         y="0"
         x="0" />
      <use
         height="100%"
         width="100%"
         id="use397"
         transform="translate(-150.8515,-418.10147)"
         xlink:href="#text197"
         inkscape:tiled-clone-of="#text197"
         y="0"
         x="0" />
      <use
         height="100%"
         width="100%"
         id="use399"
         transform="translate(-192.54555,-406.60797)"
         xlink:href="#text197"
         inkscape:tiled-clone-of="#text197"
         y="0"
         x="0" />
      <use
         height="100%"
         width="100%"
         id="use401"
         transform="translate(-150.8515,-395.11447)"
         xlink:href="#text197"
         inkscape:tiled-clone-of="#text197"
         y="0"
         x="0" />
      <use
         height="100%"
         width="100%"
         id="use403"
         transform="translate(-192.54555,-383.62097)"
         xlink:href="#text197"
         inkscape:tiled-clone-of="#text197"
         y="0"
         x="0" />
      <use
         height="100%"
         width="100%"
         id="use405"
         transform="translate(-150.8515,-372.12747)"
         xlink:href="#text197"
         inkscape:tiled-clone-of="#text197"
         y="0"
         x="0" />
      <use
         height="100%"
         width="100%"
         id="use407"
         transform="translate(-192.54555,-360.63397)"
         xlink:href="#text197"
         inkscape:tiled-clone-of="#text197"
         y="0"
         x="0" />
      <use
         height="100%"
         width="100%"
         id="use409"
         transform="translate(-150.8515,-349.14047)"
         xlink:href="#text197"
         inkscape:tiled-clone-of="#text197"
         y="0"
         x="0" />
      <use
         height="100%"
         width="100%"
         id="use411"
         transform="translate(-192.54555,-337.64697)"
         xlink:href="#text197"
         inkscape:tiled-clone-of="#text197"
         y="0"
         x="0" />
      <use
         height="100%"
         width="100%"
         id="use413"
         transform="translate(-150.8515,-326.15347)"
         xlink:href="#text197"
         inkscape:tiled-clone-of="#text197"
         y="0"
         x="0" />
      <use
         height="100%"
         width="100%"
         id="use415"
         transform="translate(-192.54555,-314.65997)"
         xlink:href="#text197"
         inkscape:tiled-clone-of="#text197"
         y="0"
         x="0" />
      <use
         height="100%"
         width="100%"
         id="use417"
         transform="translate(-150.8515,-303.16647)"
         xlink:href="#text197"
         inkscape:tiled-clone-of="#text197"
         y="0"
         x="0" />
      <use
         height="100%"
         width="100%"
         id="use419"
         transform="translate(-192.54555,-291.67297)"
         xlink:href="#text197"
         inkscape:tiled-clone-of="#text197"
         y="0"
         x="0" />
      <use
         height="100%"
         width="100%"
         id="use421"
         transform="translate(-150.8515,-280.17947)"
         xlink:href="#text197"
         inkscape:tiled-clone-of="#text197"
         y="0"
         x="0" />
      <use
         height="100%"
         width="100%"
         id="use423"
         transform="translate(-192.54555,-268.68597)"
         xlink:href="#text197"
         inkscape:tiled-clone-of="#text197"
         y="0"
         x="0" />
      <use
         height="100%"
         width="100%"
         id="use425"
         transform="translate(-150.8515,-257.19247)"
         xlink:href="#text197"
         inkscape:tiled-clone-of="#text197"
         y="0"
         x="0" />
      <use
         height="100%"
         width="100%"
         id="use427"
         transform="translate(-192.54555,-245.69897)"
         xlink:href="#text197"
         inkscape:tiled-clone-of="#text197"
         y="0"
         x="0" />
      <use
         height="100%"
         width="100%"
         id="use429"
         transform="translate(-150.8515,-234.20547)"
         xlink:href="#text197"
         inkscape:tiled-clone-of="#text197"
         y="0"
         x="0" />
      <use
         height="100%"
         width="100%"
         id="use431"
         transform="translate(-192.54555,-222.71197)"
         xlink:href="#text197"
         inkscape:tiled-clone-of="#text197"
         y="0"
         x="0" />
      <use
         height="100%"
         width="100%"
         id="use433"
         transform="translate(-150.8515,-211.21847)"
         xlink:href="#text197"
         inkscape:tiled-clone-of="#text197"
         y="0"
         x="0" />
      <use
         height="100%"
         width="100%"
         id="use435"
         transform="translate(-192.54555,-199.72497)"
         xlink:href="#text197"
         inkscape:tiled-clone-of="#text197"
         y="0"
         x="0" />
      <use
         height="100%"
         width="100%"
         id="use437"
         transform="translate(-150.8515,-188.23147)"
         xlink:href="#text197"
         inkscape:tiled-clone-of="#text197"
         y="0"
         x="0" />
      <use
         height="100%"
         width="100%"
         id="use439"
         transform="translate(-192.54555,-176.73797)"
         xlink:href="#text197"
         inkscape:tiled-clone-of="#text197"
         y="0"
         x="0" />
      <use
         height="100%"
         width="100%"
         id="use441"
         transform="translate(-150.8515,-165.24447)"
         xlink:href="#text197"
         inkscape:tiled-clone-of="#text197"
         y="0"
         x="0" />
    </g>
    <g
       id="g185"
       transform="translate(2.8920722,10.007791)">
      <g
         transform="matrix(1.5445648,0,0,1.5445648,114.48551,-113.12301)"
         id="g5123">
        <g
           id="g5030"
           transform="matrix(0.35277777,0,0,-0.35277777,35.946393,325.64292)">
          <g
             id="g5032"
             clip-path="url(#clipPath5036)">
            <g
               id="g5038"
               transform="translate(115.4117,240.0016)">
              <path
                 d="m 0,0 c -1.34,0 -2.44,-0.273 -3.298,-0.819 -0.859,-0.547 -1.289,-1.374 -1.289,-2.479 0,-1.107 0.43,-1.952 1.289,-2.537 0.858,-0.586 2.687,-1.217 5.484,-1.894 2.797,-0.677 4.905,-1.626 6.324,-2.849 1.418,-1.224 2.127,-3.025 2.127,-5.406 0,-2.381 -0.898,-4.314 -2.693,-5.797 -1.796,-1.483 -4.151,-2.225 -7.066,-2.225 -4.268,0 -8.054,1.47 -11.359,4.411 l 2.889,3.474 c 2.758,-2.394 5.621,-3.591 8.588,-3.591 1.483,0 2.66,0.318 3.532,0.956 0.872,0.638 1.308,1.483 1.308,2.537 0,1.055 -0.41,1.874 -1.23,2.459 -0.819,0.586 -2.231,1.119 -4.235,1.601 -2.004,0.481 -3.527,0.923 -4.567,1.327 -1.041,0.404 -1.965,0.93 -2.772,1.581 -1.613,1.223 -2.42,3.096 -2.42,5.621 0,2.524 0.918,4.47 2.752,5.836 1.835,1.366 4.105,2.049 6.812,2.049 1.743,0 3.474,-0.287 5.191,-0.859 1.718,-0.573 3.201,-1.379 4.45,-2.42 L 7.358,-2.498 C 6.551,-1.77 5.458,-1.171 4.079,-0.702 2.699,-0.234 1.34,0 0,0"
                 style="fill:#ffffff;fill-opacity:1;fill-rule:nonzero;stroke:none"
                 id="path5040"
                 inkscape:connector-curvature="0" />
            </g>
            <g
               id="g5042"
               transform="translate(135.1122,241.3508)">
              <path
                 d="m 0,0 c 0.329,0.45 0.495,0.906 0.495,1.368 0,0.461 -0.176,0.854 -0.528,1.179 -0.352,0.323 -0.797,0.486 -1.335,0.486 -0.945,0 -1.731,-0.484 -2.357,-1.451 L -5.29,2.489 c 0.505,0.758 1.062,1.329 1.672,1.714 0.61,0.384 1.396,0.577 2.357,0.577 0.962,0 1.805,-0.305 2.53,-0.915 C 1.994,3.255 2.357,2.423 2.357,1.368 2.357,0.775 2.202,0.209 1.895,-0.33 1.587,-0.868 1.022,-1.56 0.198,-2.406 L -2.505,-5.159 H 2.72 v -1.862 h -7.878 v 1.648 l 3.493,3.511 C -0.885,-1.071 -0.33,-0.451 0,0"
                 style="fill:#ffffff;fill-opacity:1;fill-rule:nonzero;stroke:none"
                 id="path5044"
                 inkscape:connector-curvature="0" />
            </g>
          </g>
        </g>
        <g
           id="g5046"
           transform="matrix(0.35277777,0,0,-0.35277777,66.326239,238.81345)">
          <path
             d="m 0,0 v -2.01 -4.307 -5.485 H 4.321 V -6.317 -2.01 0 Z"
             style="fill:#ffffff;fill-opacity:1;fill-rule:nonzero;stroke:none"
             id="path5048"
             inkscape:connector-curvature="0" />
        </g>
        <g
           id="g5050"
           transform="matrix(0.35277777,0,0,-0.35277777,35.946393,325.64292)">
          <g
             id="g5052"
             clip-path="url(#clipPath5056)">
            <g
               id="g5058"
               transform="translate(98.5034,240.2166)">
              <path
                 d="m 0,0 c -0.995,0.972 -2.078,1.763 -3.243,2.383 l -2.61,-3.567 v -0.013 c 0.895,-0.465 1.721,-1.086 2.477,-1.867 1.86,-1.927 2.791,-4.262 2.791,-7.007 0,-2.746 -0.931,-5.081 -2.791,-7.007 -1.861,-1.926 -4.144,-2.888 -6.851,-2.888 -2.706,0 -4.99,0.962 -6.85,2.888 -1.861,1.926 -2.791,4.261 -2.791,7.007 0,2.745 0.93,5.08 2.791,7.007 0.743,0.768 1.554,1.38 2.432,1.842 l -2.617,3.577 C -18.407,1.738 -19.473,0.957 -20.453,0 c -2.759,-2.693 -4.138,-6.05 -4.138,-10.071 0,-4.021 1.379,-7.378 4.138,-10.071 2.757,-2.693 6.167,-4.04 10.226,-4.04 4.06,0 7.469,1.347 10.227,4.04 2.758,2.693 4.138,6.05 4.138,10.071 C 4.138,-6.05 2.758,-2.693 0,0"
                 style="fill:#ffffff;fill-opacity:1;fill-rule:nonzero;stroke:none"
                 id="path5060"
                 inkscape:connector-curvature="0" />
            </g>
          </g>
        </g>
        <text
           style="font-variant:normal;font-weight:600;font-stretch:normal;font-size:7.05555534px;font-family:'Montserrat SemiBold';-inkscape-font-specification:Montserrat-SemiBold;writing-mode:lr-tb;fill:#ffffff;fill-opacity:1;fill-rule:nonzero;stroke:none;stroke-width:0.35277778"
           id="text5064"
           x="81.273643"
           y="249.47238">
          <tspan
             x="81.273643 86.09259 90.558754 93.493866 98.044701 102.25687 105.19198 109.97565"
             y="249.47238"
             sodipodi:role="line"
             id="tspan5062"
             style="stroke-width:0.35277778">borgerPC</tspan>
        </text>
      </g>
      <text
         y="280.61627"
         x="204.82242"
         id="text5068"
         style="font-variant:normal;font-weight:normal;font-stretch:normal;font-size:5.44888115px;font-family:Montserrat;-inkscape-font-specification:Montserrat-Regular;writing-mode:lr-tb;fill:#ffffff;fill-opacity:1;fill-rule:nonzero;stroke:none;stroke-width:0.5448882">
        <tspan
           style="font-weight:normal;stroke-width:0.5448882"
           id="tspan5066"
           sodipodi:role="line"
           y="280.61627"
           x="204.82242 209.68826 214.55414 219.30557 220.49341 223.89896 226.45993 229.8219 231.00977 234.2137 237.77182 239.57539 243.28062 245.42749 248.83304 252.54918 256.1073 259.34937 261.56708 263.37067 266.77618 269.33716 272.69913 276.40436 279.80994 281.95682 285.44409 288.64801 290.79486 294.50009">www.os2.eu/produkt/os2borgerpc</tspan>
      </text>
    </g>
    <text
       xml:space="preserve"
       style="font-style:normal;font-variant:normal;font-weight:normal;font-stretch:normal;font-size:10.58333397px;line-height:1.25;font-family:'Squarish Sans CT';-inkscape-font-specification:'Squarish Sans CT';letter-spacing:0px;word-spacing:0px;fill:#000000;fill-opacity:1;stroke:none;stroke-width:0.26458335;opacity:0.1;"
       x="72.193451"
       y="561.20532"
       id="text197"
       inkscape:tile-cx="368.14194"
       inkscape:tile-cy="99.483327"
       inkscape:tile-w="870.00278"
       inkscape:tile-h="7.6623337"
       inkscape:tile-x0="-66.859452"
       inkscape:tile-y0="95.65216"><tspan
         sodipodi:role="line"
         id="tspan195"
         x="72.193451"
         y="561.20532"
         style="font-style:normal;font-variant:normal;font-weight:bold;font-stretch:normal;font-family:Montserrat;-inkscape-font-specification:Montserrat;stroke-width:0.26458335;">testmaskine · testmaskine · testmaskine · testmaskine · testmaskine · testmaskine · testmaskine · testmaskine · testmaskine</tspan></text>
  </g>
</svg>
