<?xml version="1.0" encoding="UTF-8" standalone="no"?>
<!-- Created with Inkscape (http://www.inkscape.org/) -->

<svg
   xmlns:dc="http://purl.org/dc/elements/1.1/"
   xmlns:cc="http://creativecommons.org/ns#"
   xmlns:rdf="http://www.w3.org/1999/02/22-rdf-syntax-ns#"
   xmlns:svg="http://www.w3.org/2000/svg"
   xmlns="http://www.w3.org/2000/svg"
   xmlns:sodipodi="http://sodipodi.sourceforge.net/DTD/sodipodi-0.dtd"
   xmlns:inkscape="http://www.inkscape.org/namespaces/inkscape"
   width="640"
   height="480"
   viewBox="0 0 169.33333 127"
   version="1.1"
   id="svg8"
   inkscape:version="0.92.3 (2405546, 2018-03-11)"
   sodipodi:docname="borgerpc.svg">
  <defs
     id="defs2">
    <clipPath
       id="clipPath113"
       clipPathUnits="userSpaceOnUse">
      <path
         inkscape:connector-curvature="0"
         id="path111"
         d="M 0,0 H 1190.551 V 841.89 H 0 Z" />
    </clipPath>
    <clipPath
       id="clipPath131"
       clipPathUnits="userSpaceOnUse">
      <path
         inkscape:connector-curvature="0"
         id="path129"
         d="M 0,0 H 1190.551 V 841.89 H 0 Z" />
    </clipPath>
    <clipPath
       id="clipPath153"
       clipPathUnits="userSpaceOnUse">
      <path
         inkscape:connector-curvature="0"
         id="path151"
         d="M 0,0 H 1190.551 V 841.89 H 0 Z" />
    </clipPath>
    <clipPath
       id="clipPath173"
       clipPathUnits="userSpaceOnUse">
      <path
         inkscape:connector-curvature="0"
         id="path171"
         d="M 0,0 H 1190.551 V 841.89 H 0 Z" />
    </clipPath>
    <clipPath
       id="clipPath191"
       clipPathUnits="userSpaceOnUse">
      <path
         inkscape:connector-curvature="0"
         id="path189"
         d="M 0,0 H 1190.551 V 841.89 H 0 Z" />
    </clipPath>
    <clipPath
       id="clipPath213"
       clipPathUnits="userSpaceOnUse">
      <path
         inkscape:connector-curvature="0"
         id="path211"
         d="M 0,0 H 1190.551 V 841.89 H 0 Z" />
    </clipPath>
    <clipPath
       id="clipPath235"
       clipPathUnits="userSpaceOnUse">
      <path
         inkscape:connector-curvature="0"
         id="path233"
         d="M 0,0 H 1190.551 V 841.89 H 0 Z" />
    </clipPath>
    <clipPath
       id="clipPath5036"
       clipPathUnits="userSpaceOnUse">
      <path
         inkscape:connector-curvature="0"
         id="path5034"
         d="M 0,0 H 297.638 V 419.528 H 0 Z" />
    </clipPath>
    <clipPath
       id="clipPath5056"
       clipPathUnits="userSpaceOnUse">
      <path
         inkscape:connector-curvature="0"
         id="path5054"
         d="M 0,0 H 297.638 V 419.528 H 0 Z" />
    </clipPath>
  </defs>
  <sodipodi:namedview
     id="base"
     pagecolor="#ffffff"
     bordercolor="#666666"
     borderopacity="1.0"
     inkscape:pageopacity="0.0"
     inkscape:pageshadow="2"
     inkscape:zoom="0.98994949"
     inkscape:cx="274.08509"
     inkscape:cy="250.25578"
     inkscape:document-units="mm"
     inkscape:current-layer="layer1"
     showgrid="false"
     units="px"
     inkscape:window-width="1247"
     inkscape:window-height="1383"
     inkscape:window-x="3233"
     inkscape:window-y="27"
     inkscape:window-maximized="0" />
  <metadata
     id="metadata5">
    <rdf:RDF>
      <cc:Work
         rdf:about="">
        <dc:format>image/svg+xml</dc:format>
        <dc:type
           rdf:resource="http://purl.org/dc/dcmitype/StillImage" />
        <dc:title></dc:title>
      </cc:Work>
    </rdf:RDF>
  </metadata>
  <g
     inkscape:label="Layer 1"
     inkscape:groupmode="layer"
     id="layer1"
     transform="translate(0,-169.99999)">
    <path
       d="M 1.6666667e-6,296.99999 H 169.33333 v -127 H 1.6666667e-6 Z"
       style="fill:#2ea836;fill-opacity:1;fill-rule:nonzero;stroke:none;stroke-width:0.41500035"
       id="path5028"
       inkscape:connector-curvature="0" />
    <g
       id="g5123"
       transform="matrix(1.5445648,0,0,1.5445648,-51.955768,-145.97787)">
      <g
         transform="matrix(0.35277777,0,0,-0.35277777,35.946393,325.64292)"
         id="g5030">
        <g
           clip-path="url(#clipPath5036)"
           id="g5032">
          <g
             transform="translate(115.4117,240.0016)"
             id="g5038">
            <path
               inkscape:connector-curvature="0"
               id="path5040"
               style="fill:#ffffff;fill-opacity:1;fill-rule:nonzero;stroke:none"
               d="m 0,0 c -1.34,0 -2.44,-0.273 -3.298,-0.819 -0.859,-0.547 -1.289,-1.374 -1.289,-2.479 0,-1.107 0.43,-1.952 1.289,-2.537 0.858,-0.586 2.687,-1.217 5.484,-1.894 2.797,-0.677 4.905,-1.626 6.324,-2.849 1.418,-1.224 2.127,-3.025 2.127,-5.406 0,-2.381 -0.898,-4.314 -2.693,-5.797 -1.796,-1.483 -4.151,-2.225 -7.066,-2.225 -4.268,0 -8.054,1.47 -11.359,4.411 l 2.889,3.474 c 2.758,-2.394 5.621,-3.591 8.588,-3.591 1.483,0 2.66,0.318 3.532,0.956 0.872,0.638 1.308,1.483 1.308,2.537 0,1.055 -0.41,1.874 -1.23,2.459 -0.819,0.586 -2.231,1.119 -4.235,1.601 -2.004,0.481 -3.527,0.923 -4.567,1.327 -1.041,0.404 -1.965,0.93 -2.772,1.581 -1.613,1.223 -2.42,3.096 -2.42,5.621 0,2.524 0.918,4.47 2.752,5.836 1.835,1.366 4.105,2.049 6.812,2.049 1.743,0 3.474,-0.287 5.191,-0.859 1.718,-0.573 3.201,-1.379 4.45,-2.42 L 7.358,-2.498 C 6.551,-1.77 5.458,-1.171 4.079,-0.702 2.699,-0.234 1.34,0 0,0" />
          </g>
          <g
             transform="translate(135.1122,241.3508)"
             id="g5042">
            <path
               inkscape:connector-curvature="0"
               id="path5044"
               style="fill:#ffffff;fill-opacity:1;fill-rule:nonzero;stroke:none"
               d="m 0,0 c 0.329,0.45 0.495,0.906 0.495,1.368 0,0.461 -0.176,0.854 -0.528,1.179 -0.352,0.323 -0.797,0.486 -1.335,0.486 -0.945,0 -1.731,-0.484 -2.357,-1.451 L -5.29,2.489 c 0.505,0.758 1.062,1.329 1.672,1.714 0.61,0.384 1.396,0.577 2.357,0.577 0.962,0 1.805,-0.305 2.53,-0.915 C 1.994,3.255 2.357,2.423 2.357,1.368 2.357,0.775 2.202,0.209 1.895,-0.33 1.587,-0.868 1.022,-1.56 0.198,-2.406 L -2.505,-5.159 H 2.72 v -1.862 h -7.878 v 1.648 l 3.493,3.511 C -0.885,-1.071 -0.33,-0.451 0,0" />
          </g>
        </g>
      </g>
      <g
         transform="matrix(0.35277777,0,0,-0.35277777,66.326239,238.81345)"
         id="g5046">
        <path
           inkscape:connector-curvature="0"
           id="path5048"
           style="fill:#ffffff;fill-opacity:1;fill-rule:nonzero;stroke:none"
           d="m 0,0 v -2.01 -4.307 -5.485 H 4.321 V -6.317 -2.01 0 Z" />
      </g>
      <g
         transform="matrix(0.35277777,0,0,-0.35277777,35.946393,325.64292)"
         id="g5050">
        <g
           clip-path="url(#clipPath5056)"
           id="g5052">
          <g
             transform="translate(98.5034,240.2166)"
             id="g5058">
            <path
               inkscape:connector-curvature="0"
               id="path5060"
               style="fill:#ffffff;fill-opacity:1;fill-rule:nonzero;stroke:none"
               d="m 0,0 c -0.995,0.972 -2.078,1.763 -3.243,2.383 l -2.61,-3.567 v -0.013 c 0.895,-0.465 1.721,-1.086 2.477,-1.867 1.86,-1.927 2.791,-4.262 2.791,-7.007 0,-2.746 -0.931,-5.081 -2.791,-7.007 -1.861,-1.926 -4.144,-2.888 -6.851,-2.888 -2.706,0 -4.99,0.962 -6.85,2.888 -1.861,1.926 -2.791,4.261 -2.791,7.007 0,2.745 0.93,5.08 2.791,7.007 0.743,0.768 1.554,1.38 2.432,1.842 l -2.617,3.577 C -18.407,1.738 -19.473,0.957 -20.453,0 c -2.759,-2.693 -4.138,-6.05 -4.138,-10.071 0,-4.021 1.379,-7.378 4.138,-10.071 2.757,-2.693 6.167,-4.04 10.226,-4.04 4.06,0 7.469,1.347 10.227,4.04 2.758,2.693 4.138,6.05 4.138,10.071 C 4.138,-6.05 2.758,-2.693 0,0" />
          </g>
        </g>
      </g>
      <text
         y="249.47238"
         x="81.273643"
         id="text5064"
         style="font-variant:normal;font-weight:600;font-stretch:normal;font-size:7.05555534px;font-family:'Montserrat SemiBold';-inkscape-font-specification:Montserrat-SemiBold;writing-mode:lr-tb;fill:#ffffff;fill-opacity:1;fill-rule:nonzero;stroke:none;stroke-width:0.35277778">
        <tspan
           style="stroke-width:0.35277778"
           id="tspan5062"
           sodipodi:role="line"
           y="249.47238"
           x="81.273643 86.09259 90.558754 93.493866 98.044701 102.25687 105.19198 109.97565">borgerPC</tspan>
      </text>
    </g>
    <text
       style="font-variant:normal;font-weight:normal;font-stretch:normal;font-size:5.44888115px;font-family:Montserrat;-inkscape-font-specification:Montserrat-Regular;writing-mode:lr-tb;fill:#ffffff;fill-opacity:1;fill-rule:nonzero;stroke:none;stroke-width:0.54488814"
       id="text5068"
       x="38.381153"
       y="247.76143">
      <tspan
         x="38.381153 43.246998 48.112854 52.864281 54.052132 57.457687 60.018654 63.380619 64.568481 67.772423 71.330536 73.134109 76.839348 78.986214 82.391769 86.107895 89.666016 92.908104 95.125801 96.929382 100.33492 102.8959 106.25786 109.96307 113.36865 115.51553 119.00282 122.20673 124.35359 128.05882"
         y="247.76143"
         sodipodi:role="line"
         id="tspan5066"
         style="font-weight:normal;stroke-width:0.54488814">www.os2.eu/produkt/os2borgerpc</tspan>
    </text>
  </g>
</svg>
